# xmcd
#
# Track frame offsets: 
#        150
#        14896
#        28228
#        44155
#        60105
#        75812
#        91673
#        104688
#        122549
#        138748
#        154079
#        167509
#        181692
#        199504
#        213289
#        233148
#        250802
#        266680
#        283191
#
# Disc length: 3983 seconds
#
# Revision: 0
# Processed by: cddbd v1.5.2PL0 Copyright (c) Steve Scherf et al.
# Submitted via: ExactAudioCopyFreeDBPlugin 1.0
#
DISCID=010f8d13
DTITLE=Various Artist - February 2013 Country Radio
DYEAR=2013
DGENRE=Country
TTITLE0=Florida-Georgia Line - Get Your Shine On
TTITLE1=Big and Rich - Party Like Cowboyz (Single Edit)
TTITLE2=Dallas Smith - What Kinda Love
TTITLE3=Blake Shelton - Sure Be Cool If You Did
TTITLE4=MacKenzie Porter - I Wish I'd Known
TTITLE5=Dean Brody - Underneath The Apple Tree
TTITLE6=Miranda Lambert - Mama's Broken Heart [Radio Edit]
TTITLE7=Darius Rucker - Wagon Wheel
TTITLE8=Rascal Flatts - Changed (Radio Edit)
TTITLE9=Jerrod Niemann - Only God Could Love You More
TTITLE10=Crystal Shawanda - Someone Who Loves You
TTITLE11=Jess Maskaluke - Hit N Run
TTITLE12=Wyatt - Jesse James (Radio Edit)
TTITLE13=The Henningsens - American Beautiful
TTITLE14=Aaron Lewis - Forever
TTITLE15=Bill Gentry - Hell And Half Of Georgia
TTITLE16=Mark Cooke - Stay With Me Tonight
TTITLE17=Kristy Lee Cook - Airborne Ranger Infantry
TTITLE18=Cledus T. Judd - Honeymoon
EXTD=
EXTT0=
EXTT1=
EXTT2=
EXTT3=
EXTT4=
EXTT5=
EXTT6=
EXTT7=
EXTT8=
EXTT9=
EXTT10=
EXTT11=
EXTT12=
EXTT13=
EXTT14=
EXTT15=
EXTT16=
EXTT17=
EXTT18=
PLAYORDER=
